<?xml version="1.0" encoding="utf-8"?>
<svg version="1.1" id="Layer_1" xmlns="http://www.w3.org/2000/svg" xmlns:xlink="http://www.w3.org/1999/xlink" x="0px" y="0px"
	 viewBox="0 0 2624.472 645.565" enable-background="new 0 0 2624.472 645.565" xml:space="preserve">
<g>
	<path d="M93.07,540.169c29.429,0,54.023-21.017,59.619-48.826c0.273,0.018,0.507,0.159,0.786,0.159h444.583
		c3.787,18.944,12.234,37.505,25.221,53.702c83.018,103.534,268.362,63.238,361.98,0.389c20.561-13.803,39.857-29.494,57.557-46.814
		c10.444-10.22,45.266-39.003,46.185-54.069c-2.365,38.802,13.427,78.419,45.04,100.544c18.132,12.7,39.993,18.576,60.687,17.391
		c4.5-0.259,9.022-0.444,13.346-1.423c27.328-6.154,49.666-26.555,56.914-51.97c7.853-27.541-4.005-58.873-27.577-72.87
		c-25.546-15.197-61.215-7.08-76.328,17.336c-3.54,5.715-1.783,13.213,3.921,16.753c0.592,0.364,1.25,0.438,1.874,0.691
		c1.619,1.087,3.417,1.927,5.493,2.125c8.697,0.832,19.463,4.741,28.802,10.444c6.297,3.862,11.977,12.689,14.115,21.97
		c1.556,6.678-0.035,14.246-4.159,19.723c-5.584,7.451-12.736,12.642-17.787,12.939c-0.21,0.012-0.379,0.131-0.588,0.153
		c-15.139,0.764-31.216-3.712-44.764-13.198c-36.655-25.654-46.54-84.396-20.745-123.249c0.328-0.492,0.78-0.885,1.117-1.371
		c0.103-0.051,0.195-0.085,0.297-0.138c3.201-1.637,5.258-4.516,6.109-7.733c27.438-31.163,76.447-43.939,117.388-28.684
		c24.49,9.102,45.656,27.622,60.081,50.846c14.425-23.224,35.591-41.744,60.081-50.846c40.941-15.255,89.95-2.479,117.388,28.684
		c0.851,3.217,2.908,6.096,6.109,7.733c0.101,0.053,0.194,0.087,0.297,0.138c0.337,0.486,0.789,0.879,1.117,1.371
		c25.795,38.853,15.909,97.595-20.746,123.249c-13.548,9.486-29.624,13.962-44.764,13.198c-0.209-0.022-0.378-0.141-0.588-0.153
		c-5.051-0.297-12.203-5.489-17.787-12.939c-4.124-5.477-5.715-13.045-4.159-19.723c2.138-9.28,7.818-18.108,14.115-21.97
		c9.339-5.703,20.105-9.612,28.802-10.444c2.076-0.198,3.874-1.037,5.493-2.125c0.623-0.253,1.281-0.326,1.874-0.691
		c5.703-3.54,7.461-11.038,3.921-16.753c-15.113-24.416-50.781-32.533-76.328-17.336c-23.573,13.997-35.431,45.329-27.577,72.87
		c7.248,25.416,29.586,45.816,56.914,51.97c4.325,0.979,8.847,1.164,13.373,1.425c20.667,1.183,42.528-4.694,60.661-17.393
		c31.613-22.125,47.404-61.743,45.04-100.544c42.271,59.686,101.418,107.418,168.634,136.236
		c84.782,36.349,233.159,43.825,297.009-35.645c13.03-16.218,21.505-34.816,25.3-53.8h444.583c0.279,0,0.513-0.141,0.786-0.159
		c5.596,27.808,30.19,48.826,59.619,48.826c33.542,0,60.834-27.292,60.834-60.833c0-33.542-27.292-60.835-60.834-60.835
		c-29.429,0-54.023,21.017-59.619,48.825c-0.273-0.018-0.507-0.159-0.786-0.159h-442.361c-0.179-7.931-1.121-15.798-3.104-23.43
		c-9.78-37.606-43.202-66.489-79.477-68.688c-19.615-1.045-40.017,6.107-55.618,20.068c-14.507,12.975-22.991,29.942-23.893,47.753
		c-0.079,1.581,0.198,3.089,0.679,4.503c-0.046,1.737,0.201,3.496,0.948,5.193c8.247,18.725,4.313,42.333-9.564,57.387
		c-2.722,2.96-3.815,7.07-2.911,10.979c0.902,3.921,3.683,7.141,7.426,8.603c8.579,3.351,17.739,4.977,26.912,4.977
		c16.694,0,33.411-5.405,46.636-15.73c20.484-15.969,31.594-42.953,28.314-68.711c-0.582-4.623-1.617-9.173-2.673-13.724
		c-0.867-3.743-1.747-7.486-2.234-11.299c-0.5-3.862-0.82-10.93,2.531-15.042c1.474-1.818,4.325-2.281,5.049-1.972
		c2.079,1.871,4.647,2.689,7.239,2.874c12.781,9.227,22.962,23.078,27.088,38.949c6.713,25.867-0.88,56.616-19.832,80.213
		c-21.671,26.97-52.587,40.468-74.711,47.039c-41.288,12.262-89.705,12.143-140-0.392
		c-87.652-21.861-166.607-78.281-217.011-153.323c23.386,7.636,45.302,11.897,65.509,11.897c18.594,0,35.917-3.221,52.113-9.649
		c57.008-22.622,91.714-89.527,77.373-149.149c-14.341-59.61-75.697-103.536-136.71-97.702
		c-33.554,3.161-63.804,20.234-80.914,45.65c-19.213,28.563-20.045,67.179-2.056,93.924c19.795,29.347,61.452,40.302,90.978,23.965
		c15.565-8.638,26.829-25.095,30.131-44.022c3.102-17.846-1.342-35.182-12.202-47.563c-2.32-2.635-5.511-3.962-8.748-4.071
		c-5.004-1.69-10.679-0.146-13.839,4.439c-3.257,4.706-10.112,12.939-19.521,15.101c-6.619,1.486-13.867-0.974-16.516-5.655
		c-2.899-5.11-1.236-12.57,0.012-16.563c6.215-20.033,23.382-37.51,40.038-40.959c47.184-1.774,94.68,33.303,105.679,79.135
		c11.43,47.491-17.276,102.835-62.688,120.848c-38.912,15.463-87.327,8.154-147.693-21.98
		c-28.324-35.595-76.557-53.277-122.814-45.935c5.937-7.337,11.448-15.004,16.181-23.122
		c22.575-38.687,30.928-86.141,22.944-130.198c-0.666-3.661-2.97-6.82-6.262-8.567c-3.304-1.746-7.201-1.865-10.598-0.404
		c-40.243,17.656-74.604,48.288-96.752,86.261c-0.626,1.072-1.238,2.151-1.837,3.236c-0.599-1.085-1.211-2.164-1.837-3.236
		c-22.147-37.973-56.508-68.604-96.752-86.261c-3.398-1.461-7.295-1.342-10.598,0.404c-3.292,1.747-5.596,4.907-6.262,8.567
		c-7.984,44.057,0.369,91.511,22.944,130.198c4.733,8.118,10.244,15.784,16.181,23.122c-46.257-7.342-94.49,10.34-122.814,45.935
		c-60.366,30.134-108.781,37.442-147.693,21.98c-45.412-18.012-74.118-73.357-62.688-120.848
		c11-45.832,58.495-80.909,105.679-79.135c16.656,3.449,33.823,20.926,40.038,40.959c1.248,3.993,2.911,11.454,0.012,16.563
		c-2.65,4.68-9.897,7.141-16.516,5.655c-9.409-2.162-16.265-10.396-19.521-15.101c-3.159-4.585-8.835-6.129-13.839-4.439
		c-3.237,0.109-6.428,1.436-8.748,4.071c-10.86,12.381-15.304,29.717-12.202,47.563c3.302,18.926,14.566,35.384,30.131,44.022
		c29.526,16.337,71.183,5.381,90.978-23.965c17.989-26.746,17.157-65.361-2.056-93.924c-17.11-25.416-47.36-42.489-80.914-45.65
		c-61.012-5.834-122.369,38.092-136.71,97.702c-14.341,59.622,20.365,126.527,77.373,149.149
		c16.196,6.428,33.519,9.649,52.113,9.649c20.208,0,42.123-4.262,65.509-11.897c-50.404,75.042-129.359,131.462-217.011,153.323
		c-50.295,12.535-98.712,12.654-140,0.392c-22.124-6.57-53.04-20.068-74.711-47.039c-18.951-23.598-26.544-54.346-19.831-80.213
		c4.126-15.871,14.307-29.721,27.088-38.949c2.592-0.185,5.159-1.004,7.239-2.874c0.724-0.309,3.575,0.154,5.049,1.972
		c3.351,4.112,3.03,11.18,2.531,15.042c-0.486,3.813-1.367,7.556-2.234,11.299c-1.057,4.551-2.091,9.101-2.673,13.724
		c-3.28,25.758,7.83,52.742,28.314,68.711c13.224,10.325,29.942,15.73,46.636,15.73c9.173,0,18.333-1.627,26.912-4.977
		c3.743-1.462,6.523-4.682,7.425-8.603c0.904-3.909-0.19-8.019-2.911-10.979c-13.877-15.054-17.811-38.662-9.564-57.387
		c0.747-1.697,0.994-3.456,0.948-5.193c0.481-1.414,0.758-2.921,0.679-4.503c-0.902-17.811-9.386-34.778-23.893-47.753
		c-15.601-13.961-36.002-21.113-55.618-20.068c-36.276,2.198-69.697,31.082-79.477,68.688c-1.982,7.633-2.924,15.499-3.104,23.43
		H153.476c-0.279,0-0.513,0.141-0.786,0.159c-5.596-27.808-30.19-48.825-59.619-48.825c-33.542,0-60.835,27.292-60.835,60.835
		C32.236,512.877,59.528,540.169,93.07,540.169z M1213.874,462.974c-5.095-3.112-10.495-5.664-15.925-7.834
		c8.867-2.83,18.973-2.644,27.034,2.154c14.152,8.413,21.447,28.303,16.6,45.281c-0.4,1.402-1.292,2.639-1.84,4
		c-0.193-2.129-0.254-4.273-0.739-6.365C1236.152,487.902,1228.061,471.66,1213.874,462.974z M1385.469,500.211
		c-0.485,2.091-0.547,4.235-0.739,6.365c-0.548-1.361-1.44-2.598-1.84-4c-4.846-16.978,2.448-36.868,16.6-45.281
		c8.06-4.798,18.166-4.985,27.034-2.154c-5.43,2.171-10.83,4.722-15.925,7.834C1396.411,471.66,1388.32,487.902,1385.469,500.211z
		 M2531.401,442.835c20.128,0,36.5,16.372,36.5,36.5c0,20.127-16.372,36.499-36.5,36.499c-20.127,0-36.5-16.372-36.5-36.499
		C2494.901,459.207,2511.274,442.835,2531.401,442.835z M1921.698,499.605c-9.387,7.32-21.685,10.825-33.851,10.503
		c10.345-20.202,11.731-45.04,3.002-65.993l0.003-0.009c0.57-11.288,6.179-22.243,15.815-30.857
		c9.567-8.572,22.039-13.358,33.967-13.711c-4.388,7.797-6.119,17.483-4.703,28.587c0.582,4.61,1.615,9.161,2.673,13.712
		c0.867,3.741,1.746,7.484,2.234,11.299C1943.025,470.294,1935.337,488.96,1921.698,499.605z M1588.68,290.976
		c3.089,0,6.215-0.332,9.304-1.045c8.495-1.952,16.537-6.667,23.698-13.263c1.725,5.296,2.273,11.232,1.193,17.468
		c-2.043,11.739-8.755,21.802-17.965,26.9c-18.594,10.349-46.195,2.757-58.968-16.266c-12.618-18.748-11.786-46.195,2.044-66.751
		c2.141-3.18,4.964-5.897,7.633-8.719c-1.057,2.509-2.06,5.017-2.82,7.459c-4.231,13.568-3.518,25.949,2.054,35.788
		C1561.34,284.002,1574.684,290.976,1588.68,290.976z M1218.638,202.398c29.181,16.089,53.942,40.124,70.755,68.938
		c11.497,19.711,19.222,41.569,22.842,64.087c3.62-22.517,11.345-44.376,22.842-64.087c16.813-28.813,41.575-52.849,70.755-68.938
		c2.591,33.602-5.168,68.297-22.1,97.323c-16.505,28.277-41.963,51.615-71.497,66.005c-29.534-14.389-54.993-37.728-71.497-66.005
		C1223.806,270.695,1216.047,236,1218.638,202.398z M1071.674,236.76c-0.76-2.442-1.763-4.951-2.82-7.459
		c2.669,2.822,5.492,5.539,7.633,8.719c13.83,20.556,14.662,48.003,2.044,66.751c-12.773,19.023-40.374,26.615-58.968,16.266
		c-9.21-5.098-15.922-15.161-17.965-26.9c-1.08-6.237-0.532-12.172,1.193-17.468c7.161,6.595,15.202,11.311,23.698,13.263
		c3.089,0.713,6.215,1.045,9.304,1.045c13.996,0,27.339-6.974,33.827-18.428C1075.192,262.709,1075.905,250.328,1071.674,236.76z
		 M683.633,453.137c0.488-3.815,1.367-7.558,2.234-11.299c1.058-4.551,2.091-9.102,2.673-13.712
		c1.417-11.104-0.314-20.79-4.703-28.587c11.928,0.353,24.4,5.139,33.967,13.711c9.636,8.614,15.245,19.57,15.815,30.857
		l0.003,0.009c-8.729,20.953-7.343,45.791,3.002,65.993c-12.166,0.322-24.463-3.183-33.851-10.503
		C689.135,488.96,681.446,470.294,683.633,453.137z M93.07,442.835c20.127,0,36.5,16.372,36.5,36.5
		c0,20.127-16.374,36.499-36.5,36.499c-20.128,0-36.5-16.372-36.5-36.499C56.57,459.207,72.942,442.835,93.07,442.835z"/>
	<path d="M1308.641,158.567c1.206,0,2.405-0.035,3.594-0.105c1.189,0.07,2.388,0.105,3.594,0.105
		c33.542,0,60.835-27.292,60.835-60.835c0-33.541-27.292-60.833-60.835-60.833c-1.207,0-2.405,0.035-3.594,0.105
		c-1.189-0.07-2.388-0.105-3.594-0.105c-33.542,0-60.835,27.292-60.835,60.833C1247.807,131.275,1275.099,158.567,1308.641,158.567z
		 M1308.641,61.234c1.213,0,2.412,0.059,3.594,0.176c1.183-0.116,2.382-0.176,3.594-0.176c20.128,0,36.5,16.372,36.5,36.499
		c0,20.128-16.372,36.5-36.5,36.5c-1.213,0-2.412-0.059-3.594-0.176c-1.183,0.116-2.382,0.176-3.594,0.176
		c-20.128,0-36.5-16.372-36.5-36.5C1272.141,77.606,1288.513,61.234,1308.641,61.234z"/>
</g>
</svg>
