<?xml version='1.0' encoding='utf-8'?>
<svg xmlns="http://www.w3.org/2000/svg" version="1.1" id="Layer_1" x="0px" y="0px" viewBox="0 0 5000 1257.9042" enable-background="new 0 0 5000 1257.9042"> <g> <g> <path d="M2485.0425,651.4648c-25.968-16.7592-5.2578-56.8134,23.0854-47.4866c24.3318,8.0068,24.2544,42.9395-0.1902,50.7809 C2500.3352,657.1979,2491.7258,655.778,2485.0425,651.4648z"/> <path d="M4585.126,956.3265c4.7539,173.9421,13.6025,199.9108,65.4404,192.0341c26.042-3.9551,29.002,1.4363,11.439,20.84 c-14.6763,16.2159-44.1006,16.9043-66.0317,1.5414c-15.3105-10.723-18.3159-10.6144-40.7783,1.4836 c-28.0947,15.1299-62.394,8.0168-66.5977-13.811c-2.1279-11.0471,1.042-12.1857,22.6338-8.136 c22.103,4.1459,26.6851,2.3051,38.2769-15.3788c11.1187-16.9603,13.5693-38.557,15.7344-138.6517 c3.6025-166.4472-13.8848-233.7124-76.3228-293.5702c-83.1343-79.7029-185.8525-83.376-235.457-8.4197 c-36.0225,54.435-30.9517,143.0026,11.7407,205.0533c46.7178,67.9027,154.9956,127.6606,249.3032,137.5885 c51.1577,5.3861,45.6353,20.6456-6.3672,17.5962c-155.71-9.1361-288.9966-125.4993-299.2031-261.2119 c-8.0693-107.3093,69.6318-184.6757,169.7246-168.9922c45.269,7.0938,79.5278,25.3258,136.5112,72.6477 c41.3965,34.3779,89.4697,52.468,116.5679,43.8678c45.8647-14.5572,76.6885-57.7507,67.5332-94.635 c-14.4995-58.4163-97.1343-74.5096-97.1343-18.9168c0,18.2792,25.5552,30.1706,38.0298,17.6978 c11.6235-11.6251,19.3652-9.6161,19.3652,5.0252c0,19.2041-14.4292,30.1339-39.7813,30.1339 c-45.5181,0-65.582-49.0927-34.9419-85.5068c18.3628-21.8205,48.7437-28.6843,76.0234-21.0569 c101.5518,28.3937,59.6748,217.5326-72.9531,183.8688c-16.1162-4.0899-30.9414-5.8011-32.9414-3.7991 c-2.0005,2.0003,3.2227,20.9853,11.6074,42.19C4586.7979,847.0207,4583.6528,902.4256,4585.126,956.3265z"/> <path d="M3759.1448,648.595c-28.6431-13.5571-28.6624-13.5921-9.7859-18.8906c27.9839-7.856,395.1538-5.4385,422.3135-12.021 c22.5405-5.4666,29.2178-15.5118,24.0347-36.1592c-3.4224-13.6359-1.1807-16.2019,14.1631-16.2019 c25.3804,0,32.2656,24.5446,13.8252,49.2889c-19.0288,25.5342-72.8213,31.1567-250.6621,26.2033 c-126.1655-3.5152-161.3958,0.0697-138.676,14.1132c19.5825,12.1086,3.5532,53.3511-8.3062,65.9752 c-19.8364,21.115-41.9885,22.476-36.7004,2.256c2.0649-7.8925,6.605-14.3488,10.0906-14.3488 c9.2009,0,7.3445-23.3098-2.8584-35.8719C3791.7747,667.0179,3774.9282,656.0637,3759.1448,648.595z"/> <path d="M4576.0693,1204.8394c5.4316-0.7395,11.3481,0.4237,17.2451,4.2656c11.73,7.6428,15.4487,25.2694,7.8057,36.9994 c-7.6426,11.7299-25.269,15.4486-36.999,7.8062C4541.3052,1239.045,4555.0537,1207.7004,4576.0693,1204.8394z"/> <path d="M2590.9773,515.1016c9.0168,0.0013,26.3611,8.6871,9.6523,14.6777c-8.2783,2.968-13.6814,9.8811-18.4277,17.1254 c-8.8401,13.4905-9.6545,20.7858-3.5891,32.1201c13.051,24.387,36.5779,32.297,107.9609,36.2905 c54.1057,3.0284,68.1567,6.0324,68.1567,14.5765c0,26.3924-159.5332-19.4172-179.3335,42.9675 c-6.4089,20.192,1.7988,41.5978,17.9116,46.7123c8.3164,2.6396,12.0313,8.4495,9.5459,14.9285 c-10.0918,26.3043-97.6592-22.6021-41.8674-88.9091l17.8992-21.2727l-17.8992-11.7285 C2524.7402,588.8406,2547.4194,515.1016,2590.9773,515.1016z"/> <path d="M3582.3506,613.0981c12.4827,14.987,5.1577,35.7962-10.3396,42.2018c-10.4761,4.3301-23.573,1.1754-30.9285-7.4496 C3518.6638,621.5618,3559.0586,585.133,3582.3506,613.0981z"/> <path d="M2787.0994,612.0733c-24.2476-59.7674-16.5457-133.8768,4.1284-173.0279 c41.6836-78.9393,92.1074-104.6522,159.2991-81.2286c25.8127,8.9978,57.3354,47.2431,63.2295,76.7148 c15.864,79.3177-87.5605,181.0114-184.0923,181.0114c-22.3711,0-33.3865,10.3552-19.8892,18.6979 c12.4106,7.6686,507.1421,8.8598,520.7039,13.5939c4.9324,1.72,8.968,9.9559,8.968,18.3003 c0,20.2936,16.4084,14.1596,21.616-8.0782c7.4531-31.8297,59.7832-30.2074,75.4988-71.0646 c18.7732-48.8066-20.5051-79.6807-51.1785-65.7042c-21.3848,9.744-16.5505,22.511,8.5212,22.511 c36.2048,0,30.5193,35.8912-9.3882,59.2728c-19.0115,11.1382-42.7888,12.6638-200.1262,12.8337 c-98.2031,0.1069-182.5862,0.0648-187.5186-0.0858c-17.4004-0.5394-3.6973-22.1338,1.5317-28.3702 c11.8806-14.1696,22.469-26.0571,30.3821-43.363c23.8503-52.1607,25.4426-125.4519-15.012-170.1552 c-19.2568-21.279-49.429-38.1894-78.7302-38.1894c-14.3313,0-25.9509-2.4207-25.8232-5.3808 c0.1296-2.9601,6.4807-23.138,14.114-44.8398c59.554-169.3143-87.8704-325.6116-252.0798-276.2816 c-170.7971,51.309-152.0554,289.5449,10.6538,290.4726c78.4839,0.4484,125.1594-74.0069,80.0234-127.6484 c-50.4473-59.9513-118.7742-1.3334-67.7544-1.3329c20.3191,0.0002,40.3743,21.6838,40.8269,41.3127 c0.4993,21.6662-20.8928,53.1185-53.157,58.6808c-91.1038,15.7062-138.2097-100.3773-96.8091-168.2676 c37.6348-61.7109,87.3411-82.388,154.1697-82.388c85.0254,0.0004,160.2109,81.017,168.0627,145.7483 c3.0073,24.7915-1.7695,49.8508-8.8433,73.561c-11.5359,38.6657-22.886,56.0359-83.8806,128.3753 c-69.2705,82.1552-81.3247,172.11-35.5286,265.1301c40.3647,81.987,102.8796,137.1786,213.0212,188.0685 c195.0505,90.1171,404.0635,57.1132,580.5737-62.4081c324.3867-219.6548,646.7864-824.156,1126.3792-614.0355 c127.7568,55.9746,215.7446,150.4064,260.4233,279.4981c15.0864,43.5893,17.9888,65.6099,18.6245,141.3159 c0.8335,99.2013-13.5254,161.4377-53.7905,233.1676c-105.5625,188.0449-322.1118,226.8903-322.1118,242.0253 c0,22.532,232.6318-29.1162,339.7012-233.7766c212.271-405.7499-180.4131-973.269-789.4268-758.4406 c-202.8169,71.5432-325.1357,172.3943-481.2388,322.4159c-186.5437,179.2765-251.0364,286.2238-393.9866,361.2798 C3094.3354,827.9995,2845.6272,756.3381,2787.0994,612.0733z M2931.8149,769.6804c5.4141-5.4166,33.7507,9.626,71.9221,17.1443 c87.4333,17.2213,180.5715,7.1531,263.063-28.6445c234.1404-101.6065,480.1975-546.1553,901.3367-693.3181 c208.5649-72.8808,407.2891-43.4132,527.8257,27.4688c15.7969,9.2894,145.3296,92.7436,132.979,105.0939 c-2.4487,2.4486-11.7021-2.2455-20.5649-10.4323c-49.4326-45.6579-164.5781-91.2352-256.4653-101.5169 c-146.9785-16.4436-304.498,31.2163-437.5151,132.3759c-63.2749,48.1224-177.6028,153.0951-276.3276,253.7169 c-198.9631,202.7903-248.1294,244.0763-369.481,310.2713c-122.1887,66.6539-247.6426,85.8089-369.9399,56.4861 C3041.8743,824.7148,2924.9155,776.5879,2931.8149,769.6804z"/> <path d="M3644.9612,615.7335c5.3862,5.0283,6.748,14.1102,2.6567,20.3335c-4.5249,6.8829-14.9043,9.0284-21.7871,4.5038 C3607.7334,628.6744,3628.9663,600.8016,3644.9612,615.7335z"/> <path d="M3486.0518,617.0801c13.0579-1.7085,22.0703,13.9255,15.2415,24.7552c-4.5137,7.1578-15.1326,9.5638-22.2905,5.0505 C3464.9717,638.0391,3473.2144,618.7598,3486.0518,617.0801z"/> </g> <g> <path d="M414.8738,956.3265c-4.7537,173.9421-13.6026,199.9108-65.44,192.0341c-26.0422-3.9551-29.0023,1.4363-11.4395,20.84 c14.6763,16.2159,44.1008,16.9043,66.0321,1.5414c15.3104-10.723,18.316-10.6144,40.778,1.4836 c28.095,15.1299,62.3941,8.0168,66.5978-13.811c2.1281-11.0471-1.0422-12.1857-22.6337-8.136 c-22.1029,4.1459-26.685,2.3051-38.2768-15.3788c-11.1189-16.9603-13.5693-38.557-15.7343-138.6517 c-3.603-166.4472,13.8846-233.7124,76.3224-293.5702c83.1343-79.7029,185.8527-83.376,235.4569-8.4197 c36.0226,54.435,30.9518,143.0026-11.7407,205.0533c-46.7177,67.9027-154.9955,127.6606-249.303,137.5885 c-51.1578,5.3861-45.6351,20.6456,6.3669,17.5962c155.7101-9.1361,288.9968-125.4993,299.2032-261.2119 c8.0694-107.3093-69.6315-184.6757-169.7244-168.9922c-45.269,7.0938-79.5278,25.3258-136.5113,72.6477 c-41.3964,34.3779-89.4697,52.468-116.5681,43.8678c-45.8646-14.5572-76.6885-57.7507-67.5331-94.635 c14.4994-58.4163,97.1345-74.5096,97.1345-18.9168c0,18.2792-25.5553,30.1706-38.0299,17.6978 c-11.6234-11.6251-19.3652-9.6161-19.3652,5.0252c0,19.2041,14.4294,30.1339,39.7814,30.1339 c45.5178,0,65.5819-49.0927,34.9416-85.5068c-18.3626-21.8205-48.7437-28.6843-76.0235-21.0569 c-101.5516,28.3937-59.6747,217.5326,72.9532,183.8688c16.1161-4.0899,30.9413-5.8011,32.9416-3.7991 c2.0003,2.0003-3.2228,20.9853-11.6077,42.19C413.2023,847.0207,416.347,902.4256,414.8738,956.3265z"/> <path d="M1240.8551,648.595c28.6433-13.5571,28.6625-13.5921,9.786-18.8906c-27.9839-7.856-395.154-5.4385-422.3134-12.021 c-22.5408-5.4666-29.2178-15.5118-24.0349-36.1592c3.4225-13.6359,1.1806-16.2019-14.1631-16.2019 c-25.3801,0-32.2655,24.5446-13.8251,49.2889c19.0289,25.5342,72.8211,31.1567,250.6622,26.2033 c126.1655-3.5152,161.3956,0.0697,138.6759,14.1132c-19.5825,12.1086-3.5533,53.3511,8.3063,65.9752 c19.8363,21.115,41.9883,22.476,36.7003,2.256c-2.0651-7.8925-6.6051-14.3488-10.0907-14.3488 c-9.2009,0-7.3442-23.3098,2.8585-35.8719C1208.2253,667.0179,1225.0718,656.0637,1240.8551,648.595z"/> <path d="M423.9305,1204.8394c-5.4314-0.7395-11.3482,0.4237-17.2448,4.2656c-11.73,7.6428-15.4487,25.2694-7.8059,36.9994 c7.6428,11.7299,25.269,15.4486,36.999,7.8062C458.695,1239.045,444.9462,1207.7004,423.9305,1204.8394z"/> <path d="M2409.0227,515.1016c-9.0168,0.0013-26.3611,8.6871-9.6523,14.6777c8.2783,2.968,13.6814,9.8811,18.4277,17.1254 c8.8401,13.4905,9.6545,20.7858,3.5891,32.1201c-13.051,24.387-36.5779,32.297-107.9609,36.2905 c-54.1057,3.0284-68.1567,6.0324-68.1567,14.5765c0,26.3924,159.5332-19.4172,179.3335,42.9675 c6.4089,20.192-1.7988,41.5978-17.9116,46.7123c-8.3164,2.6396-12.0313,8.4495-9.5459,14.9285 c10.0918,26.3043,97.6592-22.6021,41.8674-88.9091l-17.8992-21.2727l17.8992-11.7285 C2475.2598,588.8406,2452.5806,515.1016,2409.0227,515.1016z"/> <path d="M1417.6494,613.0981c-12.4828,14.987-5.1577,35.7962,10.3397,42.2018c10.476,4.3301,23.5728,1.1754,30.9282-7.4496 C1481.3363,621.5618,1440.9415,585.133,1417.6494,613.0981z"/> <path d="M1722.8137,731.9937c-142.9502-75.056-207.4429-182.0033-393.9867-361.2798 c-156.103-150.0215-278.4218-250.8727-481.2384-322.4159C238.5747-166.5304-154.1096,400.9887,58.1616,806.7386 c107.0696,204.6604,339.7011,256.3086,339.7011,233.7766c0-15.135-216.5494-53.9804-322.1118-242.0253 C35.486,726.7601,21.1267,664.5237,21.9605,565.3224c0.6358-75.7059,3.5382-97.7265,18.6243-141.3159 C85.2636,294.9148,173.2514,200.483,301.0085,144.5084c479.5928-210.1205,801.9923,394.3807,1126.379,614.0355 c176.5101,119.5213,385.5232,152.5251,580.5737,62.4081c110.1416-50.8898,172.6565-106.0815,213.0212-188.0685 c45.7961-93.0201,33.7419-182.9749-35.5286-265.1301c-60.9946-72.3394-72.3447-89.7096-83.8806-128.3753 c-7.0737-23.7102-11.8506-48.7695-8.8433-73.561c7.8518-64.7313,83.0374-145.7479,168.0627-145.7483 c66.8286,0,116.5349,20.6772,154.1697,82.388c41.4006,67.8903-5.7053,183.9738-96.8091,168.2676 c-32.2642-5.5623-53.6563-37.0146-53.157-58.6808c0.4526-19.6288,20.5078-41.3125,40.8269-41.3127 c51.0198-0.0004-17.3071-58.6184-67.7544,1.3329c-45.136,53.6415,1.5396,128.0968,80.0234,127.6484 c162.7092-0.9277,181.4509-239.1636,10.6538-290.4726c-164.2095-49.33-311.6337,106.9673-252.0798,276.2816 c7.6333,21.7018,13.9844,41.8797,14.114,44.8398c0.1277,2.9601-11.4919,5.3808-25.8232,5.3808 c-29.3011,0-59.4735,16.9104-78.7301,38.1894c-40.4548,44.7033-38.8624,117.9945-15.0122,170.1552 c7.9131,17.3059,18.5016,29.1934,30.3822,43.363c5.2291,6.2365,18.9321,27.8308,1.5319,28.3702 c-4.9325,0.1506-89.3157,0.1927-187.5187,0.0858c-157.3373-0.1699-181.1147-1.6955-200.1261-12.8337 c-39.9076-23.3815-45.5931-59.2728-9.3884-59.2728c25.0719,0,29.9061-12.7671,8.5214-22.511 c-30.6733-13.9765-69.9517,16.8976-51.1783,65.7042c15.7156,40.8572,68.0455,39.235,75.4988,71.0646 c5.2074,22.2378,21.616,28.3718,21.616,8.0782c0-8.3444,4.0356-16.5803,8.968-18.3003 c13.5616-4.7341,508.2931-5.9252,520.7037-13.5939c13.4973-8.3427,2.4819-18.6979-19.8892-18.6979 c-96.5317,0-199.9562-101.6938-184.0923-181.0114c5.8939-29.4717,37.4167-67.717,63.2295-76.7148 c67.1917-23.4236,117.6155,2.2893,159.2991,81.2286c20.6741,39.1511,28.376,113.2605,4.1284,173.0279 C2154.3728,756.3381,1905.6644,827.9995,1722.8137,731.9937z M1901.3525,838.3257 c-122.2975,29.3228-247.7511,10.1678-369.9399-56.4861c-121.3516-66.1949-170.5178-107.481-369.481-310.2713 c-98.725-100.6219-213.0528-205.5946-276.3279-253.7169C752.5869,116.6919,595.0673,69.0319,448.0887,85.4756 c-91.8868,10.2817-207.0326,55.859-256.4651,101.5169c-8.8629,8.1868-18.1163,12.881-20.565,10.4323 c-12.3507-12.3503,117.182-95.8045,132.9792-105.0939C424.5741,21.449,623.2983-8.0187,831.8632,64.8621 c421.1392,147.1627,667.1963,591.7115,901.3367,693.3181c82.4916,35.7977,175.6298,45.8658,263.0631,28.6445 c38.1713-7.5184,66.5081-22.561,71.9221-17.1443C2075.0845,776.5879,1958.1259,824.7148,1901.3525,838.3257z"/> <path d="M1355.0389,615.7335c-5.3862,5.0283-6.7482,14.1102-2.6569,20.3335c4.5249,6.8829,14.9042,9.0284,21.7872,4.5038 C1392.2666,628.6744,1371.0337,600.8016,1355.0389,615.7335z"/> <path d="M1513.9482,617.0801c-13.0577-1.7085-22.0703,13.9255-15.2415,24.7552c4.5135,7.1578,15.1327,9.5638,22.2905,5.0505 C1535.0282,638.0391,1526.7855,618.7598,1513.9482,617.0801z"/> </g> </g> </svg>